<svg xmlns="http://www.w3.org/2000/svg" xmlns:xlink="http://www.w3.org/1999/xlink" width="40" zoomAndPan="magnify" viewBox="0 0 30 30.000001" height="40" preserveAspectRatio="xMidYMid meet" version="1.0"><defs><clipPath id="53fae30d65"><path d="M 2.84375 0 L 26.792969 0 L 26.792969 29.03125 L 2.84375 29.03125 Z M 2.84375 0 " clip-rule="nonzero"/></clipPath></defs><g clip-path="url(#53fae30d65)"><path fill="#ddd" d="M 26.121094 29.03125 L 21.46875 29.03125 C 21.097656 29.03125 20.800781 28.738281 20.800781 28.371094 L 20.800781 16.496094 L 8.835938 16.496094 L 8.835938 28.371094 C 8.835938 28.738281 8.539062 29.03125 8.171875 29.03125 L 3.515625 29.03125 C 3.148438 29.03125 2.851562 28.738281 2.851562 28.371094 L 2.851562 0.660156 C 2.851562 0.296875 3.148438 0 3.515625 0 L 8.171875 0 C 8.539062 0 8.835938 0.296875 8.835938 0.660156 L 8.835938 11.21875 L 20.800781 11.21875 L 20.800781 0.660156 C 20.800781 0.296875 21.097656 0 21.46875 0 L 26.121094 0 C 26.488281 0 26.785156 0.296875 26.785156 0.660156 L 26.785156 28.371094 C 26.785156 28.738281 26.488281 29.03125 26.121094 29.03125 Z M 26.121094 29.03125 " fill-opacity="1" fill-rule="nonzero"/></g></svg>