<svg xmlns="http://www.w3.org/2000/svg" xmlns:xlink="http://www.w3.org/1999/xlink" width="40" zoomAndPan="magnify" viewBox="0 0 30 30.000001" height="40" preserveAspectRatio="xMidYMid meet" version="1.0"><defs><clipPath id="4c51c556b9"><path d="M 0.484375 2.578125 L 29.515625 2.578125 L 29.515625 25.800781 L 0.484375 25.800781 Z M 0.484375 2.578125 " clip-rule="nonzero"/></clipPath></defs><g clip-path="url(#4c51c556b9)"><path fill="#fff" d="M 2.835938 11.984375 C 1.535156 11.984375 0.484375 13.019531 0.484375 14.304688 C 0.484375 15.589844 1.535156 16.628906 2.835938 16.628906 C 4.140625 16.628906 5.191406 15.589844 5.191406 14.304688 C 5.191406 13.019531 4.140625 11.984375 2.835938 11.984375 Z M 2.835938 2.695312 C 1.535156 2.695312 0.484375 3.730469 0.484375 5.015625 C 0.484375 6.300781 1.535156 7.339844 2.835938 7.339844 C 4.140625 7.339844 5.191406 6.300781 5.191406 5.015625 C 5.191406 3.730469 4.140625 2.695312 2.835938 2.695312 Z M 2.835938 21.527344 C 1.683594 21.527344 0.742188 22.449219 0.742188 23.59375 C 0.742188 24.738281 1.683594 25.660156 2.835938 25.660156 C 3.992188 25.660156 4.933594 24.738281 4.933594 23.59375 C 4.933594 22.449219 3.992188 21.527344 2.835938 21.527344 Z M 7.546875 25.144531 L 29.515625 25.144531 L 29.515625 22.046875 L 7.546875 22.046875 Z M 7.546875 15.855469 L 29.515625 15.855469 L 29.515625 12.757812 L 7.546875 12.757812 Z M 7.546875 3.46875 L 7.546875 6.566406 L 29.515625 6.566406 L 29.515625 3.46875 Z M 7.546875 3.46875 " fill-opacity="1" fill-rule="nonzero"/></g></svg>